<svg width="385" height="512" viewBox="0 0 385 512" fill="none" xmlns="http://www.w3.org/2000/svg">
<path d="M224.35 136V0H160.75V32H128.75V0H24.3501C11.0501 0 0.350098 10.7 0.350098 24V488C0.350098 501.3 11.0501 512 24.3501 512H360.35C373.65 512 384.35 501.3 384.35 488V160H248.35C235.15 160 224.35 149.2 224.35 136ZM96.2501 32H128.25V64H96.2501V32ZM128.55 416C95.3501 416 70.5501 385.6 77.1501 353.1L96.7501 256V224H128.75V192H96.7501V160H128.75V128H96.7501V96H128.75V64H160.75V96H128.75V128H160.75V160H128.75V192H160.75V224H128.75V256H150.85C156.55 256 161.55 260.1 162.65 265.7L179.95 353.4C186.35 385.8 161.55 416 128.55 416V416ZM161.25 363C161.25 377.9 146.75 390 128.85 390C110.95 390 96.3501 378 96.3501 363C96.3501 348.1 110.85 336 128.75 336C146.65 336 161.25 348.1 161.25 363V363ZM384.35 121.9V128H256.35V0H262.45C268.85 0 274.95 2.5 279.45 7L377.35 105C381.85 109.5 384.35 115.6 384.35 121.9Z" fill="#3167A6"/>
</svg>
