<svg width="16" height="16" viewBox="0 0 16 16" fill="#37a631" xmlns="http://www.w3.org/2000/svg">
<path fill-rule="evenodd" clip-rule="evenodd" d="M1.81986 2.8098H8.69962H12.2863C12.4114 2.80992 12.535 2.83607 12.6494 2.88658C12.7638 2.9371 12.8664 3.01087 12.9507 3.1032C13.035 3.19554 13.0992 3.30441 13.1391 3.42289C13.179 3.54137 13.1938 3.66687 13.1825 3.79138L13.1399 4.51859L14.0826 3.57158C14.0712 3.42354 14.0414 3.2771 13.9938 3.13565C13.9139 2.89846 13.7855 2.68051 13.6167 2.49572C13.4478 2.31092 13.2423 2.16333 13.0133 2.06236C12.7842 1.96138 12.5367 1.90925 12.2863 1.90927H8.69962C8.22188 1.90917 7.76375 1.71935 7.42599 1.38156L6.68019 0.635925C6.34243 0.298138 5.88429 0.108317 5.40656 0.108215H2.09908C1.62131 0.108215 1.1631 0.297969 0.825261 0.635733C0.487422 0.973497 0.297626 1.4316 0.297626 1.90927L0.333655 2.69363C0.0962179 3.03878 -0.0127772 3.45619 0.0256062 3.87333L0.59937 10.177C0.640043 10.6245 0.846552 11.0406 1.17836 11.3437C1.51016 11.6468 1.94329 11.8149 2.39272 11.8151H6.66519L5.76327 10.9146H2.39272C2.16801 10.9144 1.9515 10.8302 1.78568 10.6786C1.61986 10.5269 1.51672 10.3188 1.4965 10.0951L0.922732 3.79138C0.911471 3.66679 0.926296 3.54122 0.966264 3.42268C1.00623 3.30414 1.07046 3.19522 1.15487 3.10287C1.23927 3.01052 1.34199 2.93677 1.45649 2.88631C1.57098 2.83585 1.69473 2.8098 1.81986 2.8098ZM6.68109 1.90927L6.04247 1.2726H6.04337C5.87449 1.10371 5.64543 1.0088 5.40656 1.00874H2.09908C1.86328 1.0087 1.63687 1.1011 1.46846 1.2661C1.30005 1.43111 1.20307 1.65556 1.19835 1.89126L1.20376 2.01734C1.39651 1.9471 1.60368 1.90927 1.81986 1.90927H6.68109Z" />
<path fill-rule="evenodd" clip-rule="evenodd" d="M15.7293 4.70825C15.8151 4.79388 15.8832 4.8956 15.9296 5.00759C15.9761 5.11958 16 5.23964 16 5.36088C16 5.48213 15.9761 5.60219 15.9296 5.71418C15.8832 5.82617 15.8151 5.92789 15.7293 6.01352L10.2013 11.5443C10.1157 11.6301 10.014 11.6983 9.90207 11.7447C9.79013 11.7912 9.67013 11.8151 9.54895 11.8151C9.42776 11.8151 9.30776 11.7912 9.19583 11.7447C9.08389 11.6983 8.98222 11.6301 8.89664 11.5443L6.13262 8.77891C6.04696 8.69321 5.97901 8.59146 5.93265 8.47948C5.88629 8.3675 5.86243 8.24748 5.86243 8.12628C5.86243 8.00507 5.88629 7.88505 5.93265 7.77308C5.97901 7.6611 6.04696 7.55935 6.13262 7.47364C6.21828 7.38794 6.31998 7.31995 6.4319 7.27357C6.54383 7.22719 6.66378 7.20332 6.78493 7.20332C6.90607 7.20332 7.02603 7.22719 7.13796 7.27357C7.24988 7.31995 7.35158 7.38794 7.43724 7.47364L9.54895 9.58825L14.4247 4.70825C14.5103 4.62241 14.6119 4.5543 14.7239 4.50783C14.8358 4.46136 14.9558 4.43744 15.077 4.43744C15.1982 4.43744 15.3182 4.46136 15.4301 4.50783C15.542 4.5543 15.6437 4.62241 15.7293 4.70825Z" />
</svg>
