<svg width="16" height="16" viewBox="0 0 16 16" fill="#d0021b" xmlns="http://www.w3.org/2000/svg">
<path fill-rule="evenodd" clip-rule="evenodd" d="M1.81986 2.80986H8.69962H12.2863C12.4114 2.80998 12.535 2.83613 12.6494 2.88664C12.7638 2.93716 12.8664 3.01093 12.9507 3.10327C13.035 3.1956 13.0992 3.30447 13.1391 3.42295C13.179 3.54144 13.1938 3.66693 13.1825 3.79144L13.1399 4.51865L14.0826 3.57164C14.0712 3.4236 14.0414 3.27716 13.9938 3.13571C13.9139 2.89852 13.7855 2.68057 13.6167 2.49578C13.4478 2.31098 13.2423 2.16339 13.0133 2.06242C12.7842 1.96144 12.5367 1.90931 12.2863 1.90933H8.69962C8.22188 1.90923 7.76375 1.71941 7.42599 1.38162L6.68019 0.635986C6.34243 0.298199 5.88429 0.108378 5.40656 0.108276H2.09908C1.62131 0.108276 1.1631 0.29803 0.825261 0.635794C0.487422 0.973558 0.297626 1.43166 0.297626 1.90933L0.333655 2.6937C0.0962179 3.03884 -0.0127772 3.45625 0.0256062 3.87339L0.59937 10.1771C0.640043 10.6246 0.846552 11.0407 1.17836 11.3438C1.51016 11.6468 1.94329 11.815 2.39272 11.8152H7.44084L6.53892 10.9146H2.39272C2.16801 10.9144 1.9515 10.8302 1.78568 10.6786C1.61986 10.527 1.51672 10.3189 1.4965 10.0951L0.922732 3.79144C0.911471 3.66685 0.926296 3.54128 0.966264 3.42274C1.00623 3.3042 1.07046 3.19528 1.15487 3.10293C1.23927 3.01058 1.34199 2.93683 1.45649 2.88637C1.57098 2.83591 1.69473 2.80986 1.81986 2.80986ZM6.68109 1.90933L6.04247 1.27266H6.04337C5.87449 1.10377 5.64543 1.00886 5.40656 1.00881H2.09908C1.86328 1.00876 1.63687 1.10116 1.46846 1.26616C1.30005 1.43117 1.20307 1.65562 1.19835 1.89132L1.20376 2.0174C1.39651 1.94716 1.60368 1.90933 1.81986 1.90933H6.68109Z" />
<path fill-rule="evenodd" clip-rule="evenodd" d="M15.9275 5.00752C15.881 4.89554 15.813 4.79382 15.7272 4.70819C15.6416 4.62234 15.5399 4.55424 15.428 4.50777C15.316 4.4613 15.196 4.43738 15.0748 4.43738C14.9537 4.43738 14.8337 4.4613 14.7217 4.50777C14.6098 4.55424 14.5081 4.62234 14.4225 4.70819L12.3107 6.8219L10.8493 5.3618L10.1978 4.71025C10.0599 4.56459 9.66622 4.32011 9.1943 4.50754C9.13783 4.53099 8.99868 4.60417 8.8935 4.70924L8.89325 4.7095C8.8074 4.79507 8.7393 4.89676 8.69283 5.00868C8.64636 5.12062 8.62244 5.24062 8.62244 5.3618C8.62244 5.48299 8.64636 5.60298 8.69283 5.71492C8.7393 5.82686 8.8074 5.92853 8.89325 6.01411L11.007 8.12675L9.54679 9.5882L8.89524 10.2397C8.74957 10.3776 8.5051 10.7713 8.69251 11.2432C8.71597 11.2997 8.78915 11.4388 8.89422 11.544L8.89448 11.5443C8.98006 11.6301 9.08173 11.6982 9.19367 11.7447C9.3056 11.7911 9.4256 11.8151 9.54679 11.8151C9.66797 11.8151 9.78797 11.7911 9.89991 11.7447C10.0118 11.6982 10.1135 11.6301 10.1991 11.5443L12.3116 9.43073L14.424 11.5421C14.5097 11.6279 14.6114 11.696 14.7234 11.7424C14.8354 11.7889 14.9554 11.8128 15.0767 11.8128C15.1979 11.8128 15.318 11.7889 15.43 11.7424C15.5419 11.696 15.6437 11.6279 15.7293 11.5421C15.8151 11.4565 15.8832 11.3549 15.9297 11.2429C15.9762 11.131 16.0001 11.011 16.0001 10.8898C16.0001 10.7686 15.9762 10.6486 15.9297 10.5367C15.8832 10.4248 15.8151 10.3231 15.7293 10.2375L13.6158 8.12587L15.7272 6.01346C15.813 5.92783 15.881 5.82611 15.9275 5.71411C15.9739 5.60213 15.9978 5.48207 15.9978 5.36082C15.9978 5.23958 15.9739 5.11952 15.9275 5.00752Z" />
</svg>
