<svg width="19" height="24" viewBox="0 0 19 24" fill="none" xmlns="http://www.w3.org/2000/svg">
<path fill-rule="evenodd" clip-rule="evenodd" d="M11.078 6.375V0H1.18692C0.529169 0 -6.42475e-07 0.501563 -6.42475e-07 1.125V22.875C-6.42475e-07 23.4984 0.529169 24 1.18692 24H17.8039C18.4616 24 18.9908 23.4984 18.9908 22.875V7.5H12.2649C11.6121 7.5 11.078 6.99375 11.078 6.375ZM14.0502 11.3672L11.078 15.75L14.0502 20.1328C14.3024 20.5078 14.0205 21 13.5507 21H11.8247C11.6071 21 11.4044 20.8875 11.3005 20.7047C10.3312 19.0078 9.49539 17.4844 9.49539 17.4844C9.17888 18.1781 9.00084 18.4219 7.68533 20.7094C7.58147 20.8922 7.38365 21.0047 7.16605 21.0047H5.44007C4.97024 21.0047 4.68835 20.5125 4.94057 20.1375L7.92272 15.7547L4.94057 11.3719C4.6834 10.9969 4.97024 10.5047 5.44007 10.5047H7.16111C7.37871 10.5047 7.58147 10.6172 7.68533 10.8C8.97611 13.0875 8.67443 12.375 9.49539 14.0109C9.49539 14.0109 9.79707 13.4625 11.3054 10.8C11.4093 10.6172 11.6121 10.5047 11.8297 10.5047H13.5507C14.0205 10.5 14.3024 10.9922 14.0502 11.3672ZM18.9908 5.71406V6H12.6605V0H12.9622C13.2787 0 13.5804 0.117188 13.8029 0.328125L18.6446 4.92188C18.8671 5.13281 18.9908 5.41875 18.9908 5.71406Z" fill="#3167A6"/>
</svg>
