<svg width="16" height="16" viewBox="0 0 16 16" fill="none" xmlns="http://www.w3.org/2000/svg">
<path fill-rule="evenodd" clip-rule="evenodd" d="M4.5 12V6.51413L5.5 7.51413V12C5.5 12.663 5.76339 13.2989 6.23223 13.7678C6.70107 14.2366 7.33696 14.5 8 14.5C8.66304 14.5 9.29893 14.2366 9.76777 13.7678C10.1244 13.4112 10.3621 12.9579 10.4555 12.4696L11.2599 13.274C11.0856 13.72 10.82 14.1298 10.4749 14.4749C9.8185 15.1313 8.92826 15.5 8 15.5C7.07174 15.5 6.1815 15.1313 5.52513 14.4749C4.86875 13.8185 4.5 12.9283 4.5 12ZM11.5 9.48594V5C11.5 4.86739 11.4473 4.74021 11.3536 4.64645C11.2598 4.55268 11.1326 4.5 11 4.5C10.8674 4.5 10.7402 4.55268 10.6464 4.64645C10.5527 4.74021 10.5 4.86739 10.5 5V8.48594L11.5 9.48594ZM5.5 3V3.48594L4.54449 2.53042C4.63788 2.04209 4.87563 1.58884 5.23223 1.23223C5.70107 0.763392 6.33696 0.5 7 0.5C7.66304 0.5 8.29893 0.763392 8.76777 1.23223C9.23661 1.70107 9.5 2.33696 9.5 3V7.48182V7.48594L8.5 6.48594V3C8.5 2.80302 8.4612 2.60796 8.38582 2.42597C8.31044 2.24399 8.19995 2.07863 8.06066 1.93934C7.92137 1.80005 7.75601 1.68956 7.57403 1.61418C7.39204 1.5388 7.19698 1.5 7 1.5C6.80302 1.5 6.60796 1.5388 6.42597 1.61418C6.24399 1.68956 6.07863 1.80005 5.93934 1.93934C5.80005 2.07863 5.68956 2.24399 5.61418 2.42597C5.5388 2.60796 5.5 2.80302 5.5 3ZM8.5 12V10.5141L9.5 11.5141V12C9.5 12.3978 9.34196 12.7794 9.06066 13.0607C8.77936 13.342 8.39782 13.5 8 13.5C7.60218 13.5 7.22064 13.342 6.93934 13.0607C6.65804 12.7794 6.5 12.3978 6.5 12V8.51413L7.5 9.51413V12C7.5 12.1326 7.55268 12.2598 7.64645 12.3536C7.74021 12.4473 7.86739 12.5 8 12.5C8.13261 12.5 8.25979 12.4473 8.35355 12.3536C8.44732 12.2598 8.5 12.1326 8.5 12ZM7.5 5.48594V5C7.5 4.86739 7.44732 4.74021 7.35355 4.64645C7.25978 4.55268 7.13261 4.5 7 4.5C6.87071 4.5 6.74658 4.55007 6.65355 4.63948L7.5 5.48594Z" fill="#d0021b"/>
<path fill-rule="evenodd" clip-rule="evenodd" d="M14.611 14.6111C14.4264 14.7958 14.127 14.7958 13.9423 14.6111L1.38878 2.05757C1.20413 1.87292 1.20413 1.57355 1.38878 1.3889V1.3889C1.57342 1.20425 1.8728 1.20425 2.05744 1.3889L14.611 13.9425C14.7957 14.1271 14.7957 14.4265 14.611 14.6111V14.6111Z" fill="#d0021b"/>
</svg>
