<svg width="16" height="16" viewBox="0 0 16 16" fill="none" xmlns="http://www.w3.org/2000/svg">
<g clip-path="url(#clip0)">
<path d="M2.5 1.00024C2.23478 1.00024 1.98043 1.1056 1.79289 1.29314C1.60536 1.48067 1.5 1.73503 1.5 2.00024V3.00024C1.5 3.26546 1.60536 3.51981 1.79289 3.70735C1.98043 3.89489 2.23478 4.00024 2.5 4.00024H3V13.0002C3 13.5307 3.21071 14.0394 3.58579 14.4145C3.96086 14.7895 4.46957 15.0002 5 15.0002H11C11.5304 15.0002 12.0391 14.7895 12.4142 14.4145C12.7893 14.0394 13 13.5307 13 13.0002V4.00024H13.5C13.7652 4.00024 14.0196 3.89489 14.2071 3.70735C14.3946 3.51981 14.5 3.26546 14.5 3.00024V2.00024C14.5 1.73503 14.3946 1.48067 14.2071 1.29314C14.0196 1.1056 13.7652 1.00024 13.5 1.00024H10C10 0.735028 9.89464 0.480674 9.70711 0.293137C9.51957 0.105601 9.26522 0.000244141 9 0.000244141L7 0.000244141C6.73478 0.000244141 6.48043 0.105601 6.29289 0.293137C6.10536 0.480674 6 0.735028 6 1.00024H2.5ZM5.5 5.00024C5.63261 5.00024 5.75979 5.05292 5.85355 5.14669C5.94732 5.24046 6 5.36764 6 5.50024V12.5002C6 12.6329 5.94732 12.76 5.85355 12.8538C5.75979 12.9476 5.63261 13.0002 5.5 13.0002C5.36739 13.0002 5.24021 12.9476 5.14645 12.8538C5.05268 12.76 5 12.6329 5 12.5002V5.50024C5 5.36764 5.05268 5.24046 5.14645 5.14669C5.24021 5.05292 5.36739 5.00024 5.5 5.00024V5.00024ZM8 5.00024C8.13261 5.00024 8.25979 5.05292 8.35355 5.14669C8.44732 5.24046 8.5 5.36764 8.5 5.50024V12.5002C8.5 12.6329 8.44732 12.76 8.35355 12.8538C8.25979 12.9476 8.13261 13.0002 8 13.0002C7.86739 13.0002 7.74021 12.9476 7.64645 12.8538C7.55268 12.76 7.5 12.6329 7.5 12.5002V5.50024C7.5 5.36764 7.55268 5.24046 7.64645 5.14669C7.74021 5.05292 7.86739 5.00024 8 5.00024V5.00024ZM11 5.50024V12.5002C11 12.6329 10.9473 12.76 10.8536 12.8538C10.7598 12.9476 10.6326 13.0002 10.5 13.0002C10.3674 13.0002 10.2402 12.9476 10.1464 12.8538C10.0527 12.76 10 12.6329 10 12.5002V5.50024C10 5.36764 10.0527 5.24046 10.1464 5.14669C10.2402 5.05292 10.3674 5.00024 10.5 5.00024C10.6326 5.00024 10.7598 5.05292 10.8536 5.14669C10.9473 5.24046 11 5.36764 11 5.50024V5.50024Z" fill="#d0021b"/>
</g>
<defs>
<clipPath id="clip0">
<rect width="16" height="16" fill="#d0021b" transform="translate(0 0.000244141)"/>
</clipPath>
</defs>
</svg>
