<?xml version="1.0" standalone="no"?>
<!DOCTYPE svg PUBLIC "-//W3C//DTD SVG 20010904//EN"
 "http://www.w3.org/TR/2001/REC-SVG-20010904/DTD/svg10.dtd">
<svg version="1.0" xmlns="http://www.w3.org/2000/svg"
 width="614.000000pt" height="614.000000pt" viewBox="0 0 614.000000 614.000000"
 preserveAspectRatio="xMidYMid meet">
<metadata>
Created by potrace 1.11, written by Peter Selinger 2001-2013
</metadata>
<g transform="translate(0.000000,614.000000) scale(0.100000,-0.100000)"
fill="#000000" stroke="none">
<path d="M2669 6136 c-2 -2 -33 -6 -69 -9 -99 -9 -218 -33 -333 -66 -111 -32
-288 -106 -336 -141 -16 -11 -32 -20 -36 -20 -4 0 -46 -27 -94 -60 -97 -66
-212 -167 -292 -257 -29 -32 -56 -60 -59 -63 -16 -12 -140 -201 -168 -255 -55
-110 -106 -240 -118 -305 -3 -14 -9 -41 -14 -60 -24 -94 -34 -371 -17 -505 55
-445 355 -859 857 -1181 25 -16 50 -32 55 -37 82 -62 466 -291 895 -532 356
-201 619 -357 751 -446 312 -211 499 -471 557 -774 13 -70 4 -260 -17 -340
-74 -281 -291 -521 -583 -645 -83 -35 -236 -76 -323 -86 -33 -3 -73 -8 -90
-10 -42 -5 -271 -5 -325 1 -211 22 -395 68 -550 137 -366 163 -625 390 -769
675 -91 182 -192 511 -237 773 -15 86 -13 84 -97 84 -43 1 -78 -3 -80 -9 -1
-5 -2 -458 -2 -1005 l0 -995 83 -3 c61 -2 82 0 83 10 5 90 56 223 101 265 90
85 204 72 668 -72 602 -188 670 -200 1080 -200 206 1 258 5 405 30 448 78 833
306 1107 655 32 41 62 80 67 86 29 36 123 212 153 289 35 86 74 216 83 280 3
17 9 57 14 90 5 33 9 118 9 190 1 241 -43 433 -148 651 -138 285 -339 502
-670 721 -196 130 -569 346 -945 548 -38 21 -99 53 -135 73 -168 90 -465 266
-615 365 -388 256 -587 456 -659 663 -56 159 -59 335 -9 484 101 301 386 553
715 630 113 26 164 32 298 31 253 -1 465 -53 710 -175 230 -114 412 -267 555
-465 36 -50 65 -93 65 -95 0 -3 13 -27 28 -53 51 -86 130 -286 168 -423 16
-57 52 -222 60 -270 3 -19 7 -42 9 -50 2 -8 7 -37 10 -65 11 -89 7 -85 96 -85
l79 0 0 1015 0 1015 -80 0 -79 0 -11 -42 c-54 -211 -142 -298 -297 -292 -71 2
-148 26 -328 102 -271 114 -514 186 -698 208 -29 4 -56 9 -62 12 -10 6 -410
13 -416 8z"/>
</g>
</svg>
